<svg id="Layer_1" data-name="Layer 1" xmlns="http://www.w3.org/2000/svg" viewBox="0 0 2265 261"><defs><style>.cls-1{fill:#fff;stroke:#fff;stroke-miterlimit:10;}.cls-2{fill:#f6f6f6;}</style></defs><title>Artboard 1b</title><path class="cls-1" d="M2264.57,260.5H449.73c1.15-6.4,6.89-4.22,10.67-5.64,5.64-2.12,11.64-1.18,17.46-1.73a71.67,71.67,0,0,1,18.85-2c11.47.79,22.83.75,33.43-4.72q2.61-1,5.36-1.91c1-.34,2-.68,3-1a42.1,42.1,0,0,1,6-2c3.65-.92,5.37-.84,8.43-1.53,3.54-.81,5.51-2.24,8.24-3.1,5.43-1.7,11-3,16.2-5.34,4.54-1.06,9-2.42,13.58-3.4,15.44-4.3,30.15-10.7,45.38-15.61,1.86-.6,3.73-1.19,5.54-1.94,5.74-2.24,11.59-4.26,16.73-7.79a19.7,19.7,0,0,1,4.1-1.35c3.87-.57,7.13-2.64,10.58-4.25,13.45-5.15,27.06-9.92,39.5-17.36a24.11,24.11,0,0,1,5.63-1.72c6.35-2,12.17-5.26,18.41-7.5,1.26-.63,2.53-1.22,3.8-1.84,5-2.54,10.25-4.56,15.46-6.67,3-1.27,5.84-2.75,8.85-3.94,3.06-.94,5.64-2.88,8.58-4.09,2.1-.83,4.24-1.53,6.37-2.25a62.83,62.83,0,0,0,8.68-3.52c2.13-.85,4.31-1.55,6.37-2.59.84-.48,1.7-.88,2.57-1.29,13.55-4.8,26.11-12,39.94-16.16,3.33-1,6.6-2.09,9.84-3.34a44,44,0,0,1,4.34-1.43c13.32-4.61,26.75-8.91,40.1-13.43,9.54-1.83,18.37-6.3,28.09-7.46,8.87-2.09,17.5-5.37,26.76-5.57,11.35,0,41.49-7,42.39-7.58,6.55-2.94,13.82-2.66,20.57-4.68,8.45-.73,16.79-2.51,25.29-2.75,3.31-.21,6.64.17,10-.22a53.28,53.28,0,0,1,6.6-1.47,78.33,78.33,0,0,1,8.8-.43c11.63-.62,23.38,1.47,34.89-1.66a259.27,259.27,0,0,1,36.87.13c17.2,3.21,34.56.71,51.82,1.49,13,.06,25.88,2.63,38.91,2.61a33,33,0,0,0,12.13,1.6,46.72,46.72,0,0,1,8.69.23c10.88,3,45.78,7.41,49.44,8.23,19.8,1,38.65,6.89,57.83,11,2,.65,52.94,14.3,55.51,14.92,17.64,6.28,35.89,10.58,53.67,16.4a74.74,74.74,0,0,0,13,4,26.9,26.9,0,0,1,2.94.74c2.86,1.11,5.95,1.35,8.88,2.19,12.81,3.38,25.42,7.5,38.56,9.55a20.62,20.62,0,0,1,3.2.74c11.64,3.59,23.6,5.63,35.61,7.47,16.61,2.56,33,6.15,49.75,8.06,9.15-.37,18,2,27,2.81,15.83,2.32,31.82,2.72,47.73,4.12,9.74,2.88,19.7,1,29.56,1.41a76.9,76.9,0,0,1,19.11.66c2.6.26,6.48.63,11.19.91,7.25.44,12.64.47,15.79.49,25.06.16,22.27.3,32.67.33a188,188,0,0,0,26.71-1.49,31.42,31.42,0,0,1,7.47-.91c9.57-.25,19.22,1.23,28.71-1.1,6.28-1.44,12.91-.12,19.07-2.46a53.65,53.65,0,0,1,10.29-.53c7.23,0,14.16-2,21.2-3.26a25.34,25.34,0,0,1,5-.78c13.82-1.82,27.49-4.47,41.07-7.56,11.34-1.9,22.25-5.5,33.36-8.29,13.85-3.44,27.69-6.93,41.07-12a26.69,26.69,0,0,1,4.47-1.24c3.57-.36,6.61-2.23,9.84-3.54,20.14-7.5,39.95-15.8,59.5-24.69a568.79,568.79,0,0,0,91.92-54.37,375.6,375.6,0,0,0,55.28-46.68c4.2-4.32,7.07-11.52,15.33-10a10.17,10.17,0,0,1,.37,3.6q0,123.12-.05,246.19C2265.54,253,2266.51,256.89,2264.57,260.5Z"/><path class="cls-1" d="M354.53,260.5q-171.82,0-343.66.13c-3.22,0-8.23-4.5-8.21-7.78.36-56.66.21-113.32.21-170a2.32,2.32,0,0,1,2.47-.65c3.33,1.89,4.74,5.55,7.49,8,4.71,4.41,7.72,10.26,12.55,14.56a193.42,193.42,0,0,0,25.06,22.89C65.06,143.17,82.67,154.94,100,167.1c17.8,13.35,37.63,23.35,56.85,34.36.86.42,1.68.89,2.5,1.38,4,2.5,8.71,3.44,12.87,5.6,1.63.79,3.24,1.65,4.85,2.48a38.68,38.68,0,0,0,8.57,3.53,19.87,19.87,0,0,1,2.57,1A68.63,68.63,0,0,0,201,220.82c6.13,2,12,4.77,18.14,6.56,8.24,3.16,16.8,5.24,25.26,7.67,7.9,3.08,16.13,4.95,24.4,6.69a198.58,198.58,0,0,0,26.56,5.68,19.45,19.45,0,0,1,3.21.66c4.21,1.71,8.82.95,13.12,2.12,11.7,2.47,23.8,2.18,35.42,5,2.82.7,6.58.34,7.29,4.14A6.3,6.3,0,0,1,354.53,260.5Z"/><path class="cls-1" d="M452.24,260.51H350.62c-.7,0-1.27-.29-1.27-.64v-.73a.55.55,0,0,1,.37-.45,3.73,3.73,0,0,1,2.63.31l99.89-.5c.71,0,1.28.29,1.28.64v.73C453.52,260.22,453,260.51,452.24,260.51Z"/><rect class="cls-2" x="2.5" y="252.5" width="10" height="9"/></svg>