<svg width="183" height="53" viewBox="0 0 183 53" fill="none" xmlns="http://www.w3.org/2000/svg">
<path d="M156.5 0H26.5C11.8645 0 0 11.8645 0 26.5C0 41.1355 11.8645 53 26.5 53H156.5C171.136 53 183 41.1355 183 26.5C183 11.8645 171.136 0 156.5 0Z" fill="#E9E9E9"/>
<path d="M72.0303 18.1553C71.8219 18.4515 71.4948 18.6826 71.0488 18.8486C70.6061 19.0146 70.1097 19.0977 69.5596 19.0977C69.0029 19.0977 68.5081 18.9642 68.0752 18.6973C67.6423 18.4303 67.307 18.0527 67.0693 17.5645C66.8317 17.0762 66.7113 16.5163 66.708 15.8848V14.9863C66.708 14 66.957 13.222 67.4551 12.6523C67.9531 12.0794 68.6221 11.793 69.4619 11.793C70.1943 11.793 70.7835 11.9801 71.2295 12.3545C71.6755 12.7256 71.9408 13.2383 72.0254 13.8926H71.4248C71.3369 13.3717 71.1237 12.9779 70.7852 12.7109C70.4499 12.4408 70.0104 12.3057 69.4668 12.3057C68.8027 12.3057 68.277 12.5417 67.8896 13.0137C67.5023 13.4857 67.3086 14.1514 67.3086 15.0107V15.8506C67.3086 16.391 67.3997 16.8695 67.582 17.2861C67.7676 17.6995 68.0312 18.0202 68.373 18.248C68.7181 18.4759 69.1136 18.5898 69.5596 18.5898C70.0771 18.5898 70.5215 18.5085 70.8926 18.3457C71.1335 18.2383 71.3125 18.113 71.4297 17.9697V16.1338H69.5205V15.626H72.0303V18.1553ZM75.6436 19.0977C75.1943 19.0977 74.7874 18.987 74.4229 18.7656C74.0615 18.5443 73.7799 18.2367 73.5781 17.8428C73.3763 17.4456 73.2754 17.0013 73.2754 16.5098V16.2998C73.2754 15.792 73.373 15.3346 73.5684 14.9277C73.7669 14.5208 74.042 14.2018 74.3936 13.9707C74.7451 13.7363 75.126 13.6191 75.5361 13.6191C76.1774 13.6191 76.6852 13.8389 77.0596 14.2783C77.4372 14.7145 77.626 15.3118 77.626 16.0703V16.3975H73.8564V16.5098C73.8564 17.1087 74.0273 17.6084 74.3691 18.0088C74.7142 18.4059 75.1471 18.6045 75.668 18.6045C75.9805 18.6045 76.2555 18.5475 76.4932 18.4336C76.734 18.3197 76.9521 18.1374 77.1475 17.8867L77.5137 18.165C77.084 18.7868 76.4606 19.0977 75.6436 19.0977ZM75.5361 14.1172C75.0967 14.1172 74.7256 14.2783 74.4229 14.6006C74.1234 14.9229 73.9411 15.3558 73.876 15.8994H77.0449V15.8359C77.0286 15.3281 76.8838 14.9147 76.6104 14.5957C76.3369 14.2767 75.9788 14.1172 75.5361 14.1172ZM79.6719 12.3643V13.7168H80.7656V14.1953H79.6719V17.7158C79.6719 18.0088 79.724 18.2269 79.8281 18.3701C79.9355 18.5133 80.113 18.585 80.3604 18.585C80.458 18.585 80.6159 18.5687 80.834 18.5361L80.8584 19.0146C80.7054 19.07 80.4971 19.0977 80.2334 19.0977C79.833 19.0977 79.5417 18.9821 79.3594 18.751C79.1771 18.5166 79.0859 18.1732 79.0859 17.7207V14.1953H78.1143V13.7168H79.0859V12.3643H79.6719ZM85.0625 19H84.4766V13.7168H85.0625V19ZM84.374 12.1885C84.374 12.0778 84.4098 11.985 84.4814 11.9102C84.5531 11.832 84.6507 11.793 84.7744 11.793C84.8981 11.793 84.9958 11.832 85.0674 11.9102C85.1423 11.985 85.1797 12.0778 85.1797 12.1885C85.1797 12.2992 85.1423 12.3919 85.0674 12.4668C84.9958 12.5417 84.8981 12.5791 84.7744 12.5791C84.6507 12.5791 84.5531 12.5417 84.4814 12.4668C84.4098 12.3919 84.374 12.2992 84.374 12.1885ZM87.5625 12.3643V13.7168H88.6562V14.1953H87.5625V17.7158C87.5625 18.0088 87.6146 18.2269 87.7188 18.3701C87.8262 18.5133 88.0036 18.585 88.251 18.585C88.3486 18.585 88.5065 18.5687 88.7246 18.5361L88.749 19.0146C88.596 19.07 88.3877 19.0977 88.124 19.0977C87.7236 19.0977 87.4323 18.9821 87.25 18.751C87.0677 18.5166 86.9766 18.1732 86.9766 17.7207V14.1953H86.0049V13.7168H86.9766V12.3643H87.5625ZM91.9766 16.2803C91.9766 15.7725 92.0742 15.3151 92.2695 14.9082C92.4681 14.5013 92.7464 14.1855 93.1045 13.9609C93.4658 13.7331 93.8743 13.6191 94.3301 13.6191C95.0332 13.6191 95.6029 13.8665 96.0391 14.3613C96.4753 14.8529 96.6934 15.5055 96.6934 16.3193V16.4414C96.6934 16.9525 96.5941 17.4131 96.3955 17.8232C96.2002 18.2301 95.9235 18.5443 95.5654 18.7656C95.2074 18.987 94.7988 19.0977 94.3398 19.0977C93.64 19.0977 93.0703 18.8519 92.6309 18.3604C92.1947 17.8656 91.9766 17.2113 91.9766 16.3975V16.2803ZM92.5625 16.4414C92.5625 17.0729 92.7253 17.5921 93.0508 17.999C93.3796 18.4027 93.8092 18.6045 94.3398 18.6045C94.8672 18.6045 95.2936 18.4027 95.6191 17.999C95.9479 17.5921 96.1123 17.0566 96.1123 16.3926V16.2803C96.1123 15.8766 96.0374 15.5072 95.8877 15.1719C95.738 14.8366 95.528 14.5778 95.2578 14.3955C94.9876 14.21 94.6784 14.1172 94.3301 14.1172C93.8092 14.1172 93.3844 14.3223 93.0557 14.7324C92.7269 15.1393 92.5625 15.6732 92.5625 16.334V16.4414ZM98.4609 13.7168L98.4805 14.6201C98.679 14.2946 98.9264 14.0472 99.2227 13.8779C99.5189 13.7054 99.846 13.6191 100.204 13.6191C100.771 13.6191 101.192 13.7786 101.469 14.0977C101.745 14.4167 101.885 14.8952 101.889 15.5332V19H101.308V15.5283C101.304 15.0563 101.203 14.7048 101.005 14.4736C100.81 14.2425 100.495 14.127 100.062 14.127C99.7012 14.127 99.3805 14.2409 99.1006 14.4688C98.8239 14.6934 98.6188 14.9977 98.4854 15.3818V19H97.9043V13.7168H98.4609Z" fill="#272222"/>
<path d="M77.7266 35.2466C77.238 35.8836 76.5607 36.366 75.6948 36.6938C74.8289 37.0216 73.8455 37.1855 72.7446 37.1855C71.6128 37.1855 70.6108 36.9289 69.7388 36.4155C68.8667 35.9022 68.1925 35.1693 67.7163 34.2168C67.2463 33.2581 67.002 32.1418 66.9834 30.8677V29.8101C66.9834 27.769 67.472 26.1764 68.4492 25.0322C69.4264 23.8818 70.7902 23.3066 72.5405 23.3066C74.0435 23.3066 75.2371 23.6777 76.1216 24.4199C77.006 25.1621 77.5379 26.2321 77.7173 27.6299H75.4165C75.1567 26.0033 74.2135 25.1899 72.5869 25.1899C71.5355 25.1899 70.7345 25.5703 70.1841 26.3311C69.6398 27.0856 69.3584 28.1958 69.3398 29.6616V30.7007C69.3398 32.1603 69.646 33.2952 70.2583 34.1055C70.8768 34.9095 71.7334 35.3115 72.8281 35.3115C74.028 35.3115 74.8815 35.0394 75.3887 34.4951V31.8511H72.6055V30.0698H77.7266V35.2466ZM79.6655 31.8882C79.6655 30.9048 79.8604 30.0203 80.25 29.2349C80.6396 28.4432 81.187 27.8371 81.8921 27.4165C82.5972 26.9897 83.4074 26.7764 84.3228 26.7764C85.6772 26.7764 86.7751 27.2124 87.6162 28.0845C88.4635 28.9565 88.9212 30.1131 88.9893 31.5542L88.9985 32.083C88.9985 33.0726 88.8068 33.957 88.4233 34.7363C88.0461 35.5156 87.5018 36.1187 86.7905 36.5454C86.0854 36.9722 85.269 37.1855 84.3413 37.1855C82.925 37.1855 81.79 36.7155 80.9365 35.7754C80.0892 34.8291 79.6655 33.5705 79.6655 31.9995V31.8882ZM81.9199 32.083C81.9199 33.1159 82.1333 33.9261 82.5601 34.5137C82.9868 35.0951 83.5806 35.3857 84.3413 35.3857C85.1021 35.3857 85.6927 35.0889 86.1133 34.4951C86.54 33.9014 86.7534 33.0324 86.7534 31.8882C86.7534 30.8739 86.5339 30.0698 86.0947 29.4761C85.6618 28.8823 85.0711 28.5854 84.3228 28.5854C83.5868 28.5854 83.0023 28.8792 82.5693 29.4668C82.1364 30.0482 81.9199 30.9202 81.9199 32.083ZM90.4829 31.8882C90.4829 30.9048 90.6777 30.0203 91.0674 29.2349C91.457 28.4432 92.0044 27.8371 92.7095 27.4165C93.4146 26.9897 94.2248 26.7764 95.1401 26.7764C96.4946 26.7764 97.5924 27.2124 98.4336 28.0845C99.2809 28.9565 99.7386 30.1131 99.8066 31.5542L99.8159 32.083C99.8159 33.0726 99.6242 33.957 99.2407 34.7363C98.8634 35.5156 98.3192 36.1187 97.6079 36.5454C96.9028 36.9722 96.0864 37.1855 95.1587 37.1855C93.7424 37.1855 92.6074 36.7155 91.7539 35.7754C90.9066 34.8291 90.4829 33.5705 90.4829 31.9995V31.8882ZM92.7373 32.083C92.7373 33.1159 92.9507 33.9261 93.3774 34.5137C93.8042 35.0951 94.3979 35.3857 95.1587 35.3857C95.9194 35.3857 96.5101 35.0889 96.9307 34.4951C97.3574 33.9014 97.5708 33.0324 97.5708 31.8882C97.5708 30.8739 97.3512 30.0698 96.9121 29.4761C96.4792 28.8823 95.8885 28.5854 95.1401 28.5854C94.4041 28.5854 93.8197 28.8792 93.3867 29.4668C92.9538 30.0482 92.7373 30.9202 92.7373 32.083ZM101.328 31.9067C101.328 30.3481 101.693 29.105 102.423 28.1772C103.159 27.2433 104.133 26.7764 105.345 26.7764C106.489 26.7764 107.389 27.1753 108.045 27.9731L108.147 26.9619H110.179V36.6938C110.179 38.0112 109.767 39.0503 108.945 39.811C108.128 40.5718 107.024 40.9521 105.633 40.9521C104.897 40.9521 104.176 40.7975 103.471 40.4883C102.772 40.1852 102.24 39.7863 101.875 39.2915L102.942 37.937C103.635 38.7596 104.489 39.1709 105.503 39.1709C106.251 39.1709 106.842 38.9668 107.275 38.5586C107.708 38.1566 107.924 37.5628 107.924 36.7773V36.1001C107.275 36.8237 106.409 37.1855 105.327 37.1855C104.152 37.1855 103.19 36.7186 102.441 35.7847C101.699 34.8507 101.328 33.5581 101.328 31.9067ZM103.573 32.1016C103.573 33.1097 103.777 33.9045 104.186 34.4858C104.6 35.061 105.172 35.3486 105.902 35.3486C106.811 35.3486 107.485 34.959 107.924 34.1797V29.7637C107.498 29.0029 106.83 28.6226 105.92 28.6226C105.178 28.6226 104.6 28.9163 104.186 29.5039C103.777 30.0915 103.573 30.9574 103.573 32.1016ZM114.901 37H112.646V22.75H114.901V37ZM121.785 37.1855C120.356 37.1855 119.196 36.7371 118.306 35.8403C117.421 34.9373 116.979 33.7375 116.979 32.2407V31.9624C116.979 30.9604 117.171 30.0667 117.554 29.2812C117.944 28.4896 118.488 27.8742 119.187 27.4351C119.886 26.9959 120.665 26.7764 121.525 26.7764C122.892 26.7764 123.946 27.2124 124.688 28.0845C125.437 28.9565 125.811 30.1904 125.811 31.7861V32.6953H119.252C119.32 33.5241 119.595 34.1797 120.078 34.6621C120.566 35.1445 121.179 35.3857 121.915 35.3857C122.947 35.3857 123.789 34.9683 124.438 34.1333L125.653 35.293C125.251 35.8929 124.713 36.3599 124.039 36.6938C123.371 37.0216 122.62 37.1855 121.785 37.1855ZM121.516 28.5854C120.897 28.5854 120.396 28.8019 120.013 29.2349C119.635 29.6678 119.394 30.2708 119.289 31.0439H123.584V30.877C123.535 30.1224 123.334 29.5534 122.981 29.1699C122.629 28.7803 122.14 28.5854 121.516 28.5854ZM134.866 31.981V37H132.519V23.4922H137.686C139.195 23.4922 140.392 23.8849 141.276 24.6704C142.167 25.4559 142.612 26.495 142.612 27.7876C142.612 29.1112 142.176 30.141 141.304 30.877C140.438 31.613 139.223 31.981 137.658 31.981H134.866ZM134.866 30.0977H137.686C138.521 30.0977 139.158 29.9028 139.597 29.5132C140.036 29.1174 140.256 28.5483 140.256 27.8062C140.256 27.0763 140.033 26.495 139.588 26.062C139.143 25.6229 138.53 25.3971 137.751 25.3848H134.866V30.0977ZM146.852 37H144.598V22.75H146.852V37ZM155.313 37C155.214 36.8083 155.127 36.4959 155.053 36.063C154.336 36.8114 153.458 37.1855 152.418 37.1855C151.41 37.1855 150.588 36.8979 149.951 36.3228C149.314 35.7476 148.995 35.0363 148.995 34.189C148.995 33.119 149.391 32.2995 150.183 31.7305C150.98 31.1553 152.118 30.8677 153.597 30.8677H154.979V30.209C154.979 29.6895 154.834 29.2751 154.543 28.9658C154.252 28.6504 153.81 28.4927 153.216 28.4927C152.703 28.4927 152.282 28.6226 151.955 28.8823C151.627 29.1359 151.463 29.4606 151.463 29.8564H149.208C149.208 29.306 149.391 28.7926 149.756 28.3164C150.121 27.834 150.616 27.4567 151.24 27.1846C151.871 26.9124 152.573 26.7764 153.346 26.7764C154.521 26.7764 155.458 27.0732 156.157 27.667C156.856 28.2546 157.215 29.0833 157.233 30.1533V34.6807C157.233 35.5837 157.36 36.3042 157.614 36.8423V37H155.313ZM152.836 35.3765C153.281 35.3765 153.699 35.2682 154.088 35.0518C154.484 34.8353 154.781 34.5446 154.979 34.1797V32.2871H153.764C152.929 32.2871 152.301 32.4325 151.88 32.7231C151.46 33.0138 151.25 33.4251 151.25 33.957C151.25 34.39 151.392 34.7363 151.676 34.9961C151.967 35.2497 152.354 35.3765 152.836 35.3765ZM162.958 33.7715L164.999 26.9619H167.401L163.412 38.5215C162.8 40.21 161.761 41.0542 160.295 41.0542C159.967 41.0542 159.605 40.9985 159.209 40.8872V39.1431L159.636 39.1709C160.205 39.1709 160.632 39.0658 160.917 38.8555C161.207 38.6514 161.436 38.305 161.603 37.8164L161.928 36.9536L158.402 26.9619H160.833L162.958 33.7715Z" fill="#272222"/>
</svg>
