<svg width="41" height="41" viewBox="0 0 41 41" fill="none" xmlns="http://www.w3.org/2000/svg">
<path d="M20.5 41C31.8218 41 41 31.8218 41 20.5C41 9.17816 31.8218 0 20.5 0C9.17816 0 0 9.17816 0 20.5C0 31.8218 9.17816 41 20.5 41Z" fill="white"/>
<path d="M20.5 40.5C31.5457 40.5 40.5 31.5457 40.5 20.5C40.5 9.4543 31.5457 0.5 20.5 0.5C9.4543 0.5 0.5 9.4543 0.5 20.5C0.5 31.5457 9.4543 40.5 20.5 40.5Z" stroke="#FFB518"/>
<path d="M15.145 21.6851C14.9703 21.4996 14.8731 21.2544 14.8731 20.9996C14.8731 20.7448 14.9703 20.4996 15.145 20.3141L20.772 14.3361C20.9094 14.1902 21.0874 14.089 21.283 14.0455C21.4786 14.002 21.6827 14.0183 21.869 14.0923C22.0552 14.1662 22.2149 14.2944 22.3275 14.4602C22.44 14.626 22.5001 14.8217 22.5 15.0221V26.9781C22.4999 27.1784 22.4396 27.374 22.327 27.5397C22.2144 27.7053 22.0547 27.8334 21.8685 27.9072C21.6823 27.981 21.4783 27.9972 21.2828 27.9537C21.0873 27.9101 20.9093 27.8089 20.772 27.6631L15.145 21.6851Z" fill="#FFB518"/>
</svg>
