<svg width="41" height="41" viewBox="0 0 41 41" fill="none" xmlns="http://www.w3.org/2000/svg">
<path d="M20.5 41C31.8218 41 41 31.8218 41 20.5C41 9.17816 31.8218 0 20.5 0C9.17816 0 0 9.17816 0 20.5C0 31.8218 9.17816 41 20.5 41Z" fill="white"/>
<path d="M20.5 40.5C31.5457 40.5 40.5 31.5457 40.5 20.5C40.5 9.4543 31.5457 0.5 20.5 0.5C9.4543 0.5 0.5 9.4543 0.5 20.5C0.5 31.5457 9.4543 40.5 20.5 40.5Z" stroke="#9A9A9A"/>
<path d="M25.855 20.315C26.0297 20.5005 26.127 20.7457 26.127 21.0005C26.127 21.2553 26.0297 21.5005 25.855 21.686L20.228 27.664C20.0907 27.8099 19.9126 27.9111 19.717 27.9546C19.5214 27.9981 19.3173 27.9818 19.131 27.9079C18.9448 27.8339 18.7851 27.7058 18.6726 27.54C18.5601 27.3742 18.4999 27.1784 18.5 26.978V15.022C18.5001 14.8217 18.5604 14.6261 18.673 14.4604C18.7856 14.2948 18.9453 14.1668 19.1315 14.093C19.3177 14.0192 19.5218 14.003 19.7173 14.0465C19.9128 14.09 20.0907 14.1912 20.228 14.337L25.855 20.315Z" fill="#9A9A9A"/>
</svg>
